<svg xmlns="http://www.w3.org/2000/svg" viewBox="0 0 100 100" fill="none">
  <defs>
    <linearGradient id="grad" x1="0%" y1="0%" x2="100%" y2="100%">
      <stop offset="0%" style="stop-color:#667eea;stop-opacity:1" />
      <stop offset="50%" style="stop-color:#764ba2;stop-opacity:1" />
      <stop offset="100%" style="stop-color:#f5576c;stop-opacity:1" />
    </linearGradient>
  </defs>
  
  <!-- 圆角矩形背景 -->
  <rect width="100" height="100" rx="22" fill="url(#grad)"/>
  
  <!-- 云朵 -->
  <path d="M 70 30 
           C 70 25, 66 21, 61 21
           C 60 16, 56 13, 51 13
           C 46 13, 42 16, 41 21
           C 36 21, 32 25, 32 30
           C 32 35, 36 39, 41 39
           L 61 39
           C 66 39, 70 35, 70 30 Z" 
        fill="white" opacity="0.9"/>
  
  <!-- 笔记本 -->
  <rect x="30" y="45" width="40" height="45" rx="4" fill="white" opacity="0.95"/>
  
  <!-- 笔记线条 -->
  <line x1="37" y1="55" x2="58" y2="55" stroke="url(#grad)" stroke-width="2" stroke-linecap="round"/>
  <line x1="37" y1="63" x2="63" y2="63" stroke="url(#grad)" stroke-width="2" stroke-linecap="round"/>
  <line x1="37" y1="71" x2="60" y2="71" stroke="url(#grad)" stroke-width="2" stroke-linecap="round"/>
  <line x1="37" y1="79" x2="55" y2="79" stroke="url(#grad)" stroke-width="2" stroke-linecap="round"/>
</svg>
